<?xml version="1.0" encoding="UTF-8" standalone="no"?>
<svg
   xmlns:dc="http://purl.org/dc/elements/1.1/"
   xmlns:cc="http://creativecommons.org/ns#"
   xmlns:rdf="http://www.w3.org/1999/02/22-rdf-syntax-ns#"
   xmlns:svg="http://www.w3.org/2000/svg"
   xmlns="http://www.w3.org/2000/svg"
   xmlns:sodipodi="http://sodipodi.sourceforge.net/DTD/sodipodi-0.dtd"
   xmlns:inkscape="http://www.inkscape.org/namespaces/inkscape"
   width="16"
   height="16"
   viewBox="0 0 4.2333333 4.2333335"
   version="1.1"
   id="svg8"
   sodipodi:docname="hdd.svg"
   inkscape:version="1.0.1 (3bc2e813f5, 2020-09-07, custom)">
  <defs
     id="defs2" />
  <sodipodi:namedview
     id="base"
     pagecolor="#ffffff"
     bordercolor="#666666"
     borderopacity="1.0"
     inkscape:pageopacity="0.0"
     inkscape:pageshadow="2"
     inkscape:zoom="20.512601"
     inkscape:cx="8.5721034"
     inkscape:cy="8.8298841"
     inkscape:document-units="mm"
     inkscape:current-layer="layer1"
     showgrid="false"
     units="px"
     inkscape:window-width="1366"
     inkscape:window-height="704"
     inkscape:window-x="0"
     inkscape:window-y="0"
     inkscape:window-maximized="1"
     inkscape:document-rotation="0" />
  <metadata
     id="metadata5">
    <rdf:RDF>
      <cc:Work
         rdf:about="">
        <dc:format>image/svg+xml</dc:format>
        <dc:type
           rdf:resource="http://purl.org/dc/dcmitype/StillImage" />
        <dc:title></dc:title>
      </cc:Work>
    </rdf:RDF>
  </metadata>
  <g
     inkscape:label="Layer 1"
     inkscape:groupmode="layer"
     id="layer1"
     transform="translate(0,-280.06665)">
    <g
       id="g817"
       transform="matrix(0.31064024,0,0,0.31064024,-0.69693917,192.69092)"
       style="fill:#eeeeee;fill-opacity:1">
      <path
         sodipodi:nodetypes="ccccccscccccc"
         inkscape:connector-curvature="0"
         id="circle827"
         transform="matrix(0.26458333,0,0,0.26458333,0,280.06665)"
         d="M 34.431641,7.7910156 C 23.893101,7.7903605 15.349158,16.332554 15.347656,26.871094 c 6.2e-5,6.424128 3.22032,12.37149 8.490301,15.873253 l 10.100299,-9.536392 c 2.180521,-2.433068 7.642563,1.132278 5.778383,4.355143 l -5.284998,8.39198 C 44.970143,45.983128 53.512798,37.409633 53.511719,26.871094 53.510641,16.33408 44.968655,7.792518 34.431641,7.7910156 Z m 0,16.3378904 c 1.514291,4.27e-4 2.74176,1.227897 2.742187,2.742188 0.0017,1.515817 -1.226369,2.745667 -2.742187,2.746094 -1.516581,6.53e-4 -2.745873,-1.229514 -2.744141,-2.746094 4.27e-4,-1.515055 1.229087,-2.74284 2.744141,-2.742188 z"
         style="fill:#eeeeee;fill-opacity:1;stroke:none;stroke-width:4.56176;stroke-linecap:round;stroke-miterlimit:4;stroke-dasharray:none;paint-order:markers stroke fill" />
      <path
         sodipodi:nodetypes="ccccccccc"
         style="color:#000000;font-style:normal;font-variant:normal;font-weight:normal;font-stretch:normal;font-size:medium;line-height:normal;font-family:sans-serif;font-variant-ligatures:normal;font-variant-position:normal;font-variant-caps:normal;font-variant-numeric:normal;font-variant-alternates:normal;font-feature-settings:normal;text-indent:0;text-align:start;text-decoration:none;text-decoration-line:none;text-decoration-style:solid;text-decoration-color:#000000;letter-spacing:normal;word-spacing:normal;text-transform:none;writing-mode:lr-tb;direction:ltr;text-orientation:mixed;dominant-baseline:auto;baseline-shift:baseline;text-anchor:start;white-space:normal;shape-padding:0;clip-rule:nonzero;display:inline;overflow:visible;visibility:visible;opacity:1;isolation:auto;mix-blend-mode:normal;color-interpolation:sRGB;color-interpolation-filters:linearRGB;solid-color:#000000;solid-opacity:1;vector-effect:none;fill:#eeeeee;fill-opacity:1;fill-rule:nonzero;stroke:none;stroke-width:0.75;stroke-linecap:round;stroke-linejoin:round;stroke-miterlimit:4;stroke-dasharray:none;stroke-dashoffset:0;stroke-opacity:1;color-rendering:auto;image-rendering:auto;shape-rendering:auto;text-rendering:auto;enable-background:accumulate"
         d="m 9.6074219,289.22656 c -0.089827,0.002 -0.1757702,0.0372 -0.2421875,0.0977 l -4.6142868,4.07767 c -0.2502801,0.23144 -0.086981,0.64974 0.2539063,0.65039 h 2 c 0.1243097,1.6e-4 0.2406197,-0.0613 0.3105468,-0.16407 l 2.6142868,-4.07571 c 0.1727105,-0.25361 -0.015601,-0.59599 -0.3222656,-0.58594 z"
         id="path855"
         inkscape:connector-curvature="0" />
    </g>
  </g>
</svg>
