<?xml version="1.0" encoding="UTF-8" standalone="no"?>
<svg
   xmlns:dc="http://purl.org/dc/elements/1.1/"
   xmlns:cc="http://creativecommons.org/ns#"
   xmlns:rdf="http://www.w3.org/1999/02/22-rdf-syntax-ns#"
   xmlns:svg="http://www.w3.org/2000/svg"
   xmlns="http://www.w3.org/2000/svg"
   xmlns:sodipodi="http://sodipodi.sourceforge.net/DTD/sodipodi-0.dtd"
   xmlns:inkscape="http://www.inkscape.org/namespaces/inkscape"
   width="16"
   height="16"
   viewBox="0 0 4.2333333 4.2333335"
   version="1.1"
   id="svg8"
   sodipodi:docname="swap.svg"
   inkscape:version="1.0.1 (3bc2e813f5, 2020-09-07, custom)">
  <defs
     id="defs2" />
  <sodipodi:namedview
     id="base"
     pagecolor="#ffffff"
     bordercolor="#666666"
     borderopacity="1.0"
     inkscape:pageopacity="0.0"
     inkscape:pageshadow="2"
     inkscape:zoom="17.556406"
     inkscape:cx="10.582799"
     inkscape:cy="10.172294"
     inkscape:document-units="mm"
     inkscape:current-layer="layer1"
     showgrid="false"
     units="px"
     inkscape:window-width="1366"
     inkscape:window-height="704"
     inkscape:window-x="0"
     inkscape:window-y="0"
     inkscape:window-maximized="1"
     inkscape:document-rotation="0" />
  <metadata
     id="metadata5">
    <rdf:RDF>
      <cc:Work
         rdf:about="">
        <dc:format>image/svg+xml</dc:format>
        <dc:type
           rdf:resource="http://purl.org/dc/dcmitype/StillImage" />
        <dc:title></dc:title>
      </cc:Work>
    </rdf:RDF>
  </metadata>
  <g
     inkscape:label="Layer 1"
     inkscape:groupmode="layer"
     id="layer1"
     transform="translate(0,-280.06665)">
    <path
       style="fill:#eeeeee;fill-opacity:1;stroke:none;stroke-width:1.61766;stroke-linejoin:round;stroke-miterlimit:4;stroke-dasharray:none;paint-order:markers stroke fill"
       d="m 1.5776511,280.33123 v 0.28102 h 0.3927086 v -0.28102 z m 0.6924965,0 v 0.28102 h 0.3927086 v -0.28102 z M 1.438157,280.7444 v 0.26814 0.17544 0.39271 0.36173 0.39282 0.36174 0.39271 0.12932 0.38219 h 1.3641932 v -0.32149 -0.19002 -0.39271 -0.36174 -0.39282 -0.36173 -0.39271 -0.30465 -0.13893 z m -0.53435043,0.44358 v 0.39271 H 1.3058977 v -0.39271 z m 2.03080303,0 v 0.39271 h 0.4020911 v -0.39271 z m -0.8183124,0.11462 c 0.077622,0 0.1552446,0.009 0.2328669,0.0271 0.077622,0.0173 0.154491,0.0433 0.2306061,0.078 v 0.32556 c -0.071594,-0.0505 -0.1443173,-0.0889 -0.2181715,-0.1153 -0.073854,-0.0264 -0.1469548,-0.0396 -0.2193019,-0.0396 -0.080637,0 -0.1424331,0.0162 -0.1853892,0.0486 -0.042956,0.0324 -0.064434,0.0788 -0.064434,0.13905 0,0.0467 0.015449,0.0855 0.046347,0.11643 0.031652,0.0301 0.097216,0.0637 0.1966934,0.10061 l 0.1435636,0.0543 c 0.1356506,0.0497 0.2355045,0.11568 0.2995618,0.19782 0.064057,0.0821 0.096086,0.18577 0.096086,0.31087 0,0.17031 -0.050492,0.29767 -0.1514765,0.38208 -0.1002307,0.0836 -0.2520841,0.12548 -0.4555601,0.12548 -0.083651,0 -0.1676793,-0.0102 -0.2520841,-0.0305 -0.083651,-0.0196 -0.1646648,-0.049 -0.2430407,-0.0882 v -0.34478 c 0.088926,0.0633 0.1748386,0.11041 0.2577362,0.14131 0.083651,0.0309 0.166172,0.0463 0.2475624,0.0463 0.082144,0 0.1458244,-0.0185 0.1910413,-0.0554 0.045217,-0.0377 0.067825,-0.0901 0.067825,-0.15713 0,-0.0505 -0.015072,-0.0946 -0.045217,-0.13226 -0.030144,-0.0384 -0.073854,-0.0686 -0.1311289,-0.0904 l -0.1639112,-0.0622 c -0.168056,-0.0641 -0.2818519,-0.13113 -0.3413874,-0.20122 -0.059535,-0.0708 -0.089303,-0.16579 -0.089303,-0.28486 0,-0.15299 0.048985,-0.27319 0.1469548,-0.36061 0.09797,-0.0874 0.2324901,-0.13113 0.4035607,-0.13113 z m -1.21249063,0.63982 v 0.39282 H 1.3058977 v -0.39282 z m 2.03080303,0 v 0.39282 h 0.4020911 v -0.39282 z m -2.03080303,0.75456 v 0.39271 H 1.3058977 v -0.39271 z m 2.03080303,0 v 0.39271 h 0.4020911 v -0.39271 z m -1.3569585,1.03648 v 0.30194 h 0.3927086 v -0.30194 z m 0.6924965,0 v 0.30194 h 0.3927086 v -0.30194 z"
       id="rect818" />
    <g
       aria-label="S"
       style="font-style:normal;font-weight:normal;font-size:10.5833px;line-height:1.25;font-family:sans-serif;letter-spacing:0px;word-spacing:0px;fill:#ffffff;fill-opacity:1;stroke:none;stroke-width:0.264583"
       id="text818" />
  </g>
</svg>
