<?xml version="1.0" encoding="UTF-8" standalone="no"?>
<svg
   xmlns:dc="http://purl.org/dc/elements/1.1/"
   xmlns:cc="http://creativecommons.org/ns#"
   xmlns:rdf="http://www.w3.org/1999/02/22-rdf-syntax-ns#"
   xmlns:svg="http://www.w3.org/2000/svg"
   xmlns="http://www.w3.org/2000/svg"
   xmlns:sodipodi="http://sodipodi.sourceforge.net/DTD/sodipodi-0.dtd"
   xmlns:inkscape="http://www.inkscape.org/namespaces/inkscape"
   width="16"
   height="16"
   viewBox="0 0 4.2333333 4.2333335"
   version="1.1"
   id="svg8"
   sodipodi:docname="cpu.svg"
   inkscape:version="1.0.1 (3bc2e813f5, 2020-09-07, custom)">
  <defs
     id="defs2" />
  <sodipodi:namedview
     id="base"
     pagecolor="#ffffff"
     bordercolor="#666666"
     borderopacity="1.0"
     inkscape:pageopacity="0.0"
     inkscape:pageshadow="2"
     inkscape:zoom="25.047522"
     inkscape:cx="8.5179831"
     inkscape:cy="8.4037984"
     inkscape:document-units="mm"
     inkscape:current-layer="layer1"
     showgrid="false"
     units="px"
     inkscape:window-width="1366"
     inkscape:window-height="704"
     inkscape:window-x="0"
     inkscape:window-y="0"
     inkscape:window-maximized="1"
     inkscape:document-rotation="0" />
  <metadata
     id="metadata5">
    <rdf:RDF>
      <cc:Work
         rdf:about="">
        <dc:format>image/svg+xml</dc:format>
        <dc:type
           rdf:resource="http://purl.org/dc/dcmitype/StillImage" />
        <dc:title></dc:title>
      </cc:Work>
    </rdf:RDF>
  </metadata>
  <g
     inkscape:label="Layer 1"
     inkscape:groupmode="layer"
     id="layer1"
     transform="translate(0,-280.06665)">
    <path
       id="rect814"
       style="fill:#444444;fill-opacity:1;stroke:none;stroke-width:1.7151;stroke-linejoin:round;stroke-miterlimit:4;stroke-dasharray:none;paint-order:markers stroke fill"
       d="m 0.83047261,280.89712 v 2.57239 H 3.4028611 v -2.57239 z m 1.21237769,0.3483 h 0.5047334 l -0.5206401,0.76245 h 0.147294 v 0.002 h 0.6148043 l -1.1660788,1.16286 0.51825,-0.91929 H 1.4442918 Z m -0.8148111,-0.91419 v 0.3897 h 0.3806056 v -0.3897 z m 0.7311922,0 v 0.3897 h 0.3807152 v -0.3897 z m 0.7313018,0 v 0.3897 h 0.3806055 v -0.3897 z m -2.42594987,0.89761 v 0.38061 h 0.38969895 v -0.38061 z m 3.31446777,0 v 0.38061 h 0.389699 v -0.38061 z m -3.31446777,0.73119 v 0.38072 h 0.38969895 v -0.38072 z m 3.31446777,0 v 0.38072 h 0.389699 v -0.38072 z m -3.31446777,0.73131 v 0.3806 h 0.38969895 v -0.3806 z m 3.31446777,0 v 0.3806 h 0.389699 v -0.3806 z m -2.3510119,0.95436 v 0.3897 h 0.3806056 v -0.3897 z m 0.7311922,0 v 0.3897 h 0.3807152 v -0.3897 z m 0.7313018,0 v 0.3897 h 0.3806055 v -0.3897 z" />
  </g>
</svg>
